<svg xmlns="http://www.w3.org/2000/svg" viewBox="0 0 424.91 144.75"><defs><style>.cls-1{fill:#07101d;}</style></defs><title>Asset 2</title><g id="Layer_2" data-name="Layer 2"><g id="Layer_1-2" data-name="Layer 1"><path class="cls-1" d="M282.61,37.7A43.49,43.49,0,0,1,292,47.58a49.26,49.26,0,0,1,9.46,23.35c.84,6.54,1.23,13.23-1,19.54-1.24,3.47-3.5,6.64-5.68,9.68a89.85,89.85,0,0,1-6.53,7.3c-3.15,3.48-7.14,5.8-11.09,8.2a51.62,51.62,0,0,0-4.36,3.18,2.47,2.47,0,0,0-.54,3.6,22.19,22.19,0,0,1,3.16,13.75,41.36,41.36,0,0,1-2.14,8.57c-.95-7.55-4.61-13.56-9.64-18.89-2.32-2.46-4.56-5-6.83-7.5a13.14,13.14,0,0,0-8.63-4.46,4.94,4.94,0,0,1-4.3-3c-2-4.45-4.2-8.84-6.26-13.28-1.7-3.65-4.11-4.4-7.45-2.18a10.39,10.39,0,0,0-2,1.6c-1.09,1.16-2.32,1.14-3.2,0-1.71-2.14-3.64-3.08-6.34-2.12-.26.09-.82-.21-1-.49a3.25,3.25,0,0,0-3.48-1.54c-2.4.51-4.11-.72-5.68-2.25-2.22-2.15-5-2.72-7.91-2.75-5.25,0-10.51.07-15.76-.13-5-.19-8.79-2.37-11.06-7-5.43-11.12-4.54-22,1.32-32.61a50.39,50.39,0,0,1,8.42-11.06c.05.63.12,1,.12,1.43,0,5-.2,10.06,0,15.08a28.2,28.2,0,0,0,6.68,16.79,30.9,30.9,0,0,0,19.51,11,25.86,25.86,0,0,0,4.21.31q14.84,0,29.67,0c.39,0,.77,0,1.3-.07,0-.68.09-1.28.09-1.88,0-9,.12-18.08,0-27.12-.14-7.24-1.45-14.2-5.92-20.24S228.7,22.15,221.06,21.11c-3.25-.45-6.6-.08-9.21-.08a60,60,0,0,1,25.08-1.9c5.91.83,11.72,2.44,17.59,3.62,1.43.29,1.67,1,1.66,2.34q-.06,27.21,0,54.41c0,2.23,0,2.23,2.25,2.23,1.87,0,3.74.12,5.59-.06,4.73-.44,7.6-3.8,7.73-9.39s-.13-11-.13-16.43c0-5,.13-10,1.45-14.91.57-2.08,1.43-4.16,3.55-5.28l1.45.18-.12-.87,1-.09.68.44v0l1.08.95h0l.65.38.35.34Z"/><path class="cls-1" d="M151.52,81.42V79.5c0-10,0-20.11-.12-30.16a41.45,41.45,0,0,0-.93-7.51c-1.43-7.19-8.22-8-12.88-6.11a11.76,11.76,0,0,0-7.49,10.77c-.49,8.72-.46,17.47-.68,26.21A11.91,11.91,0,0,1,129,76a7.9,7.9,0,0,1-7.11,5.36c-2,.08-4,0-5.93.07-1.46.09-1.78-.48-1.77-1.84,0-9.49.12-19,0-28.47A39,39,0,0,0,113,41.8c-2.32-8.71-11.48-8.14-15.91-4.28a13.39,13.39,0,0,0-4.65,10c-.28,8.4-.29,16.81-.4,25.22-.05,4.06-2.7,7.89-6.4,8.48a42.21,42.21,0,0,1-8.11.13c-.33,0-.89-1-.91-1.6-.08-3.5,0-7,0-10.51,0-12.48.09-25,0-37.45-.05-5.18,4-9.7,9.29-9.31,1.63.12,3.28,0,4.92,0,.94,0,1.32.39,1.3,1.33,0,1.41,0,2.81,0,4.79,5.38-5.14,11.35-7.68,18.46-7.53,7.42.17,12.61,3.8,16.51,10,1-1.08,1.94-2.11,2.9-3.09A23.08,23.08,0,0,1,157.85,24,15.75,15.75,0,0,1,165.9,36.1a112.65,112.65,0,0,1,.79,12.46c.12,8-.1,16,.08,24.06a8.43,8.43,0,0,1-8.91,8.83C155.85,81.3,153.81,81.42,151.52,81.42Z"/><path class="cls-1" d="M19,56.53c-.23-2.84-.23-5.49,1.21-8a7.43,7.43,0,0,1,6.59-4c5.88-.1,11.75-.07,17.62-.09h2.08a14.41,14.41,0,0,0-5.78-7.73c-6.54-4.41-16.44-3.51-21.57,2.1-4.07,4.44-5.27,9.79-4.67,15.66a17.34,17.34,0,0,0,3,8.5c2.73,3.85,6.53,5.76,11.22,6.35a18.81,18.81,0,0,0,14.69-4,3.51,3.51,0,0,1,4.52-.49c3,1.55,6.1,2.9,9.14,4.36a5.83,5.83,0,0,1,1,.7A28.5,28.5,0,0,1,38.18,82.42a36.7,36.7,0,0,1-17.18-1C10.71,78.15,3.91,71.28,1.23,60.84-1.22,51.29-.14,42,5.67,33.76,10.48,26.92,17,22.6,25.41,21.46c9.23-1.25,17.86.18,25.31,6.15A28.86,28.86,0,0,1,61.21,45.4c.89,4.74-1.32,8.93-5,10.33a11.62,11.62,0,0,1-3.92.84c-10.79.06-21.58,0-32.37,0C19.68,56.6,19.45,56.56,19,56.53Z"/><path class="cls-1" d="M393.55,21.06c17,0,31.22,13,31.36,30.47C425,69.23,411.82,82.77,393.86,83c-17.15.22-30-13.85-30.84-29.22C362,35,377.68,20.68,393.55,21.06ZM409.69,51.9a42.92,42.92,0,0,0-.7-4.66c-1.82-7.15-6.73-11.37-14.15-11.85a14.57,14.57,0,0,0-11.44,4c-4.06,3.82-5.44,8.55-5.17,13.9.56,11.37,10.33,18.13,21,14.59C405.65,65.75,409.52,59.55,409.69,51.9Z"/><path class="cls-1" d="M302.16,103.12c2.24-4.8,4.29-9.23,6.36-13.64,1.78-3.79,3.6-7.55,5.32-11.35a2.59,2.59,0,0,0,0-1.82q-10.58-25.85-21.23-51.65c-.2-.49-.32-1-.52-1.69h15.4c4.94,11.88,9.89,23.8,15,36.08.82-1.7,1.52-3.09,2.16-4.5,3.8-8.34,7.55-16.71,11.41-25,2-4.27,5.53-6.41,10.18-6.63,2.68-.12,5.38,0,8.45,0-1.19,2.65-2.22,5-3.28,7.32q-11,24-22.09,48c-2.78,6-5.54,12.08-8.41,18.07a11.49,11.49,0,0,1-10.28,6.82C308,103.25,305.26,103.12,302.16,103.12Z"/><path class="cls-1" d="M229.38,52c.16,8-4.65,13.86-10,15.78-10,3.61-19.56-2.56-20.84-13.17-.62-5.17.29-9.87,3.56-13.94a14.09,14.09,0,0,1,10.52-5.3c4.82-.31,9,1,12.36,4.6C228.17,43.35,229.36,47.47,229.38,52Z"/><path class="cls-1" d="M183.5,36.62V9.73c0-2.65.07-5.31,0-8-.05-1.31.3-1.85,1.68-1.76,1.64.1,3.28,0,4.93,0a8.68,8.68,0,0,1,8.55,8.7c0,5.31,0,10.62,0,15.93a2.26,2.26,0,0,1-.89,1.69A66.77,66.77,0,0,0,183.5,36.62Z"/><path class="cls-1" d="M288.48,22.51c-1.44,4-2.76,7.61-4.1,11.24-.1.28-.38.72-.57.71-1.67,0-3.58.35-4.95-.33a103.81,103.81,0,0,1-9-5.55,9.82,9.82,0,0,1,8.07-6C281.32,22.18,284.79,22.51,288.48,22.51Z"/><path class="cls-1" d="M277.92,35l.12.87-1.45-.18Z"/><path class="cls-1" d="M280.68,36.29l-1.08-.95Z"/><path class="cls-1" d="M282.61,37.7l-1-.7Z"/><path class="cls-1" d="M279.59,35.32l-.68-.44Z"/><path class="cls-1" d="M281.3,36.66l-.65-.38Z"/></g></g></svg>